<?xml version="1.0" encoding="UTF-8"?>
<svg id="Layer_1" data-name="Layer 1" xmlns="http://www.w3.org/2000/svg" xmlns:xlink="http://www.w3.org/1999/xlink" viewBox="0 0 2076.72 299.18">
  <defs>
    <style>
      .cls-1 {
        filter: url(#drop-shadow-1);
      }

      .cls-2 {
        fill: url(#Indigo-2);
      }

      .cls-3 {
        fill: url(#Indigo-5);
      }

      .cls-4 {
        fill: url(#Indigo-4);
      }

      .cls-5 {
        fill: url(#Indigo-3);
      }

      .cls-6 {
        fill: url(#linear-gradient-2);
      }

      .cls-7 {
        fill: #9eabb2;
      }

      .cls-8 {
        fill: url(#linear-gradient);
      }

      .cls-9 {
        fill: url(#Indigo);
      }

      .cls-10 {
        fill: url(#New_Gradient_Swatch_10);
      }
    </style>
    <filter id="drop-shadow-1" x="807.28" y="-31.66" width="1330.8" height="360.72" filterUnits="userSpaceOnUse">
      <feOffset dx="0" dy="0"/>
      <feGaussianBlur result="blur" stdDeviation="20.36"/>
      <feFlood flood-color="#000" flood-opacity=".05"/>
      <feComposite in2="blur" operator="in"/>
      <feComposite in="SourceGraphic"/>
    </filter>
    <linearGradient id="Indigo" x1="868.61" y1="180.82" x2="1024.3" y2="180.82" gradientUnits="userSpaceOnUse">
      <stop offset="0" stop-color="#5d59a1"/>
      <stop offset=".5" stop-color="#2c3689"/>
      <stop offset="1" stop-color="#474576"/>
    </linearGradient>
    <linearGradient id="Indigo-2" data-name="Indigo" x1="1048.31" y1="176.24" x2="1204" y2="176.24" xlink:href="#Indigo"/>
    <linearGradient id="Indigo-3" data-name="Indigo" x1="1229.03" y1="148.59" x2="1404.62" y2="148.59" xlink:href="#Indigo"/>
    <linearGradient id="Indigo-4" data-name="Indigo" x1="1416.52" y1="178.53" x2="1595.54" y2="178.53" xlink:href="#Indigo"/>
    <linearGradient id="Indigo-5" data-name="Indigo" x1="1901.13" y1="148.59" x2="2076.72" y2="148.59" xlink:href="#Indigo"/>
    <linearGradient id="linear-gradient" x1="868.61" y1="148.59" x2="2076.72" y2="148.59" gradientUnits="userSpaceOnUse">
      <stop offset="0" stop-color="#12487b"/>
      <stop offset=".13" stop-color="#4271a3"/>
      <stop offset=".19" stop-color="#5581b3"/>
      <stop offset=".19" stop-color="#5480b2"/>
      <stop offset=".27" stop-color="#306194"/>
      <stop offset=".34" stop-color="#1a4e81"/>
      <stop offset=".38" stop-color="#12487b"/>
      <stop offset=".5" stop-color="#3e71a7"/>
      <stop offset=".59" stop-color="#6495ce"/>
      <stop offset=".6" stop-color="#6495cd"/>
      <stop offset=".87" stop-color="#6a95cd"/>
      <stop offset="1" stop-color="#3c74ac"/>
    </linearGradient>
    <radialGradient id="New_Gradient_Swatch_10" data-name="New Gradient Swatch 10" cx="1747.55" cy="178.53" fx="1747.55" fy="178.53" r="115.67" gradientTransform="translate(0 -89.26) scale(1 1.5)" gradientUnits="userSpaceOnUse">
      <stop offset="0" stop-color="#f48124"/>
      <stop offset=".33" stop-color="#f37c23"/>
      <stop offset=".69" stop-color="#f26f23"/>
      <stop offset="1" stop-color="#f05e22"/>
    </radialGradient>
    <linearGradient id="linear-gradient-2" x1="808.95" y1="269.69" x2="808.95" y2="29.49" gradientUnits="userSpaceOnUse">
      <stop offset="0" stop-color="#f05e22"/>
      <stop offset=".6" stop-color="#9eabb2"/>
    </linearGradient>
  </defs>
  <g>
    <g class="cls-1">
      <g>
        <g>
          <path class="cls-9" d="M1024.3,263.11h-38.41v-23.56h-.69c-4.8,8.51-11.95,15.33-21.43,20.45-9.49,5.12-19.15,7.69-28.98,7.69-23.32,0-40.18-5.51-50.58-16.52-10.41-11.01-15.6-27.65-15.6-49.9v-107.32h39.1v103.72c0,14.84,2.97,25.31,8.92,31.41,5.94,6.11,14.29,9.16,25.03,9.16,8.23,0,15.09-1.2,20.58-3.6,5.49-2.4,9.95-5.61,13.38-9.65,3.43-4.03,5.88-8.89,7.37-14.56,1.48-5.67,2.23-11.78,2.23-18.32v-98.16h39.1v169.16Z"/>
          <path class="cls-2" d="M1048.31,93.95h37.04v24.87l.69.65c5.94-9.38,13.72-16.74,23.32-22.09,9.6-5.34,20.23-8.02,31.89-8.02,19.43,0,34.75,4.8,45.95,14.4,11.2,9.6,16.8,24,16.8,43.19v116.16h-39.1v-106.34c-.46-13.3-3.43-22.96-8.92-28.96-5.49-6-14.06-9-25.72-9-6.63,0-12.58,1.15-17.83,3.44-5.26,2.29-9.72,5.46-13.37,9.49-3.66,4.04-6.52,8.78-8.57,14.23-2.06,5.46-3.09,11.24-3.09,17.34v99.8h-39.1V93.95Z"/>
          <path class="cls-5" d="M1229.03,29.49h39.1v86.38h.69c2.74-4.14,6.06-7.85,9.95-11.12,3.88-3.27,8.17-6.05,12.86-8.34,4.68-2.29,9.6-4.03,14.75-5.24,5.14-1.2,10.23-1.8,15.26-1.8,13.94,0,26.12,2.35,36.52,7.03,10.4,4.69,19.03,11.12,25.89,19.3,6.86,8.18,12,17.73,15.43,28.63,3.43,10.91,5.14,22.58,5.14,35.01,0,11.34-1.54,22.36-4.63,33.05-3.09,10.69-7.78,20.12-14.06,28.3-6.29,8.18-14.23,14.72-23.83,19.63-9.6,4.91-20.92,7.36-33.95,7.36-5.95,0-11.95-.38-18-1.15-6.06-.77-11.83-2.24-17.32-4.42-5.49-2.18-10.46-5.02-14.92-8.51-4.46-3.49-8.18-8.07-11.15-13.74h-.69v23.23h-37.04V29.49ZM1365.52,178.69c0-7.63-1.03-15.05-3.09-22.25-2.06-7.2-5.14-13.58-9.26-19.14-4.12-5.56-9.26-10.03-15.43-13.42-6.17-3.38-13.26-5.07-21.26-5.07-16.46,0-28.87,5.46-37.21,16.36-8.35,10.91-12.52,25.41-12.52,43.52,0,8.51,1.08,16.42,3.26,23.72,2.17,7.31,5.43,13.58,9.77,18.81,4.34,5.24,9.54,9.38,15.6,12.43,6.06,3.06,13.09,4.58,21.09,4.58,8.92,0,16.46-1.74,22.63-5.24,6.17-3.49,11.26-8.02,15.26-13.58,4-5.56,6.86-11.89,8.57-18.98,1.71-7.09,2.57-14.34,2.57-21.76Z"/>
          <path class="cls-4" d="M1506.03,267.69c-14.18,0-26.81-2.24-37.9-6.71-11.09-4.47-20.46-10.63-28.12-18.49-7.66-7.85-13.49-17.23-17.49-28.14-4-10.9-6-22.9-6-35.99s2-24.75,6-35.66c4-10.91,9.83-20.29,17.49-28.14,7.66-7.85,17.03-14.01,28.12-18.49,11.09-4.47,23.72-6.71,37.9-6.71s26.8,2.24,37.89,6.71c11.09,4.47,20.46,10.63,28.12,18.49,7.66,7.85,13.49,17.23,17.49,28.14,4,10.91,6,22.8,6,35.66s-2,25.09-6,35.99c-4,10.91-9.83,20.29-17.49,28.14-7.66,7.85-17.03,14.02-28.12,18.49-11.09,4.47-23.72,6.71-37.89,6.71ZM1506.03,238.24c8.69,0,16.23-1.74,22.63-5.24,6.4-3.49,11.66-8.07,15.78-13.74,4.11-5.67,7.14-12.05,9.09-19.14,1.94-7.09,2.91-14.34,2.91-21.76s-.97-14.4-2.91-21.6c-1.95-7.2-4.97-13.58-9.09-19.14-4.12-5.56-9.38-10.09-15.78-13.58-6.4-3.49-13.95-5.24-22.63-5.24s-16.24,1.75-22.63,5.24c-6.4,3.49-11.66,8.02-15.78,13.58-4.12,5.56-7.15,11.94-9.09,19.14-1.95,7.2-2.91,14.4-2.91,21.6s.97,14.67,2.91,21.76c1.94,7.09,4.97,13.47,9.09,19.14,4.11,5.67,9.37,10.26,15.78,13.74,6.4,3.49,13.94,5.24,22.63,5.24Z"/>
          <path class="cls-3" d="M2076.72,263.11h-37.04v-22.9h-.69c-5.26,9.82-12.92,16.85-22.98,21.1-10.06,4.25-20.69,6.38-31.89,6.38-13.95,0-26.12-2.35-36.52-7.03-10.41-4.69-19.03-11.07-25.89-19.14-6.86-8.07-12-17.61-15.43-28.63-3.43-11.01-5.14-22.85-5.14-35.5,0-15.27,2.17-28.47,6.52-39.59,4.34-11.12,10.12-20.29,17.32-27.48,7.2-7.2,15.43-12.48,24.69-15.87,9.26-3.38,18.69-5.07,28.29-5.07,5.49,0,11.09.49,16.8,1.47,5.71.98,11.2,2.57,16.46,4.74,5.26,2.18,10.12,4.96,14.58,8.34,4.46,3.38,8.17,7.36,11.15,11.94h.69V29.49h39.1v233.62ZM1940.23,180.33c0,7.2.97,14.29,2.91,21.27,1.94,6.98,4.91,13.2,8.92,18.65,4,5.46,9.09,9.82,15.26,13.09,6.17,3.27,13.49,4.91,21.95,4.91s16.17-1.74,22.46-5.24c6.29-3.49,11.43-8.07,15.43-13.74,4-5.67,6.97-12.05,8.92-19.14,1.94-7.09,2.91-14.34,2.91-21.76,0-18.76-4.4-33.37-13.2-43.84-8.8-10.47-20.75-15.71-35.84-15.71-9.15,0-16.86,1.8-23.15,5.4-6.29,3.6-11.43,8.29-15.43,14.07-4,5.78-6.86,12.33-8.57,19.63-1.71,7.31-2.57,14.78-2.57,22.41Z"/>
        </g>
        <g>
          <path class="cls-8" d="M1024.3,263.11h-38.41v-23.56h-.69c-4.8,8.51-11.95,15.33-21.43,20.45-9.49,5.12-19.15,7.69-28.98,7.69-23.32,0-40.18-5.51-50.58-16.52-10.41-11.01-15.6-27.65-15.6-49.9v-107.32h39.1v103.72c0,14.84,2.97,25.31,8.92,31.41,5.94,6.11,14.29,9.16,25.03,9.16,8.23,0,15.09-1.2,20.58-3.6,5.49-2.4,9.95-5.61,13.38-9.65,3.43-4.03,5.88-8.89,7.37-14.56,1.48-5.67,2.23-11.78,2.23-18.32v-98.16h39.1v169.16Z"/>
          <path class="cls-8" d="M1048.31,93.95h37.04v24.87l.69.65c5.94-9.38,13.72-16.74,23.32-22.09,9.6-5.34,20.23-8.02,31.89-8.02,19.43,0,34.75,4.8,45.95,14.4,11.2,9.6,16.8,24,16.8,43.19v116.16h-39.1v-106.34c-.46-13.3-3.43-22.96-8.92-28.96-5.49-6-14.06-9-25.72-9-6.63,0-12.58,1.15-17.83,3.44-5.26,2.29-9.72,5.46-13.37,9.49-3.66,4.04-6.52,8.78-8.57,14.23-2.06,5.46-3.09,11.24-3.09,17.34v99.8h-39.1V93.95Z"/>
          <path class="cls-8" d="M1229.03,29.49h39.1v86.38h.69c2.74-4.14,6.06-7.85,9.95-11.12,3.88-3.27,8.17-6.05,12.86-8.34,4.68-2.29,9.6-4.03,14.75-5.24,5.14-1.2,10.23-1.8,15.26-1.8,13.94,0,26.12,2.35,36.52,7.03,10.4,4.69,19.03,11.12,25.89,19.3,6.86,8.18,12,17.73,15.43,28.63,3.43,10.91,5.14,22.58,5.14,35.01,0,11.34-1.54,22.36-4.63,33.05-3.09,10.69-7.78,20.12-14.06,28.3-6.29,8.18-14.23,14.72-23.83,19.63-9.6,4.91-20.92,7.36-33.95,7.36-5.95,0-11.95-.38-18-1.15-6.06-.77-11.83-2.24-17.32-4.42-5.49-2.18-10.46-5.02-14.92-8.51-4.46-3.49-8.18-8.07-11.15-13.74h-.69v23.23h-37.04V29.49ZM1365.52,178.69c0-7.63-1.03-15.05-3.09-22.25-2.06-7.2-5.14-13.58-9.26-19.14-4.12-5.56-9.26-10.03-15.43-13.42-6.17-3.38-13.26-5.07-21.26-5.07-16.46,0-28.87,5.46-37.21,16.36-8.35,10.91-12.52,25.41-12.52,43.52,0,8.51,1.08,16.42,3.26,23.72,2.17,7.31,5.43,13.58,9.77,18.81,4.34,5.24,9.54,9.38,15.6,12.43,6.06,3.06,13.09,4.58,21.09,4.58,8.92,0,16.46-1.74,22.63-5.24,6.17-3.49,11.26-8.02,15.26-13.58,4-5.56,6.86-11.89,8.57-18.98,1.71-7.09,2.57-14.34,2.57-21.76Z"/>
          <path class="cls-8" d="M1506.03,267.69c-14.18,0-26.81-2.24-37.9-6.71-11.09-4.47-20.46-10.63-28.12-18.49-7.66-7.85-13.49-17.23-17.49-28.14-4-10.9-6-22.9-6-35.99s2-24.75,6-35.66c4-10.91,9.83-20.29,17.49-28.14,7.66-7.85,17.03-14.01,28.12-18.49,11.09-4.47,23.72-6.71,37.9-6.71s26.8,2.24,37.89,6.71c11.09,4.47,20.46,10.63,28.12,18.49,7.66,7.85,13.49,17.23,17.49,28.14,4,10.91,6,22.8,6,35.66s-2,25.09-6,35.99c-4,10.91-9.83,20.29-17.49,28.14-7.66,7.85-17.03,14.02-28.12,18.49-11.09,4.47-23.72,6.71-37.89,6.71ZM1506.03,238.24c8.69,0,16.23-1.74,22.63-5.24,6.4-3.49,11.66-8.07,15.78-13.74,4.11-5.67,7.14-12.05,9.09-19.14,1.94-7.09,2.91-14.34,2.91-21.76s-.97-14.4-2.91-21.6c-1.95-7.2-4.97-13.58-9.09-19.14-4.12-5.56-9.38-10.09-15.78-13.58-6.4-3.49-13.95-5.24-22.63-5.24s-16.24,1.75-22.63,5.24c-6.4,3.49-11.66,8.02-15.78,13.58-4.12,5.56-7.15,11.94-9.09,19.14-1.95,7.2-2.91,14.4-2.91,21.6s.97,14.67,2.91,21.76c1.94,7.09,4.97,13.47,9.09,19.14,4.11,5.67,9.37,10.26,15.78,13.74,6.4,3.49,13.94,5.24,22.63,5.24Z"/>
          <path class="cls-8" d="M2076.72,263.11h-37.04v-22.9h-.69c-5.26,9.82-12.92,16.85-22.98,21.1-10.06,4.25-20.69,6.38-31.89,6.38-13.95,0-26.12-2.35-36.52-7.03-10.41-4.69-19.03-11.07-25.89-19.14-6.86-8.07-12-17.61-15.43-28.63-3.43-11.01-5.14-22.85-5.14-35.5,0-15.27,2.17-28.47,6.52-39.59,4.34-11.12,10.12-20.29,17.32-27.48,7.2-7.2,15.43-12.48,24.69-15.87,9.26-3.38,18.69-5.07,28.29-5.07,5.49,0,11.09.49,16.8,1.47,5.71.98,11.2,2.57,16.46,4.74,5.26,2.18,10.12,4.96,14.58,8.34,4.46,3.38,8.17,7.36,11.15,11.94h.69V29.49h39.1v233.62ZM1940.23,180.33c0,7.2.97,14.29,2.91,21.27,1.94,6.98,4.91,13.2,8.92,18.65,4,5.46,9.09,9.82,15.26,13.09,6.17,3.27,13.49,4.91,21.95,4.91s16.17-1.74,22.46-5.24c6.29-3.49,11.43-8.07,15.43-13.74,4-5.67,6.97-12.05,8.92-19.14,1.94-7.09,2.91-14.34,2.91-21.76,0-18.76-4.4-33.37-13.2-43.84-8.8-10.47-20.75-15.71-35.84-15.71-9.15,0-16.86,1.8-23.15,5.4-6.29,3.6-11.43,8.29-15.43,14.07-4,5.78-6.86,12.33-8.57,19.63-1.71,7.31-2.57,14.78-2.57,22.41Z"/>
        </g>
      </g>
    </g>
    <path class="cls-10" d="M1867.9,103.76c-11.2-9.6-26.52-14.4-45.95-14.4-11.66,0-22.29,2.67-31.89,8.02-9.6,5.35-17.38,12.71-23.32,22.09l-.63-.6v-24.92h-39.1v98.16c0,6.54-.74,12.65-2.23,18.32-1.49,5.67-3.94,10.53-7.37,14.56-3.43,4.04-7.89,7.25-13.38,9.65-5.49,2.4-12.35,3.6-20.58,3.6-10.75,0-19.09-3.05-25.03-9.16-5.95-6.1-8.92-16.57-8.92-31.41v-103.72h-39.1v107.32c0,22.25,5.2,38.89,15.6,49.9,10.4,11.02,27.26,16.52,50.58,16.52,9.83,0,19.49-2.57,28.98-7.69,9.48-5.12,16.63-11.94,21.43-20.45h.69v23.56h40.41v-99.8c0-6.1,1.03-11.89,3.09-17.34,2.06-5.45,4.91-10.19,8.57-14.23,3.65-4.03,8.11-7.2,13.37-9.49,5.26-2.29,11.2-3.44,17.83-3.44,11.66,0,20.23,3,25.72,9,5.49,6,8.92,10.2,8.92,28.96v106.34h39.1v-116.16c0-19.19-5.61-33.59-16.8-43.19Z"/>
  </g>
  <g>
    <g>
      <path class="cls-7" d="M0,227.42V44.25h26.73v47.04h34.92v23.52H26.73v106.91c0,12.83,5.7,22.09,17.46,22.09,7.48,0,14.61-3.21,18.17-7.13l7.84,19.96c-6.77,6.41-16.39,11.05-32.07,11.05-25.3,0-38.13-14.61-38.13-40.27Z"/>
      <path class="cls-7" d="M99.42,91.29h26.73v27.8c13.9-18.17,33.85-31.36,57.37-31.36v27.44c-3.21-.71-6.41-1.07-10.69-1.07-16.39,0-38.84,13.54-46.68,27.44v121.87h-26.73V91.29Z"/>
      <path class="cls-7" d="M379.15,91.29h28.87l57.37,141.12,57.02-141.12h29.22l-71.63,172.12h-29.22l-71.63-172.12Z"/>
      <path class="cls-7" d="M654.25,87.02c52.03,0,82.67,40.62,82.67,92.3v6.77h-139.34c2.14,32.43,24.95,59.51,62.01,59.51,19.6,0,39.56-7.84,53.1-21.74l12.83,17.46c-17.1,17.11-40.27,26.37-68.42,26.37-50.96,0-87.66-36.7-87.66-90.51,0-49.89,35.64-90.16,84.81-90.16ZM597.59,166.48h112.97c-.36-25.66-17.46-57.37-56.66-57.37-36.7,0-54.88,31-56.3,57.37Z"/>
      <path class="cls-7" d="M334.03,237.76c-12.83,17.46-33.85,29.93-58.09,29.93-44.9,0-76.62-34.21-76.62-90.16s31.36-90.51,76.62-90.51c23.16,0,44.19,11.4,58.09,30.29v-26.01h26.73v172.12h-26.73v-25.66ZM334.03,138.69c-9.62-14.97-30.29-27.8-51.67-27.8-34.57,0-55.24,28.51-55.24,66.64s20.67,66.28,55.24,66.28c21.38,0,42.05-12.12,51.67-27.08v-78.04Z"/>
    </g>
    <g>
      <path class="cls-7" d="M0,227.42V44.25h26.73v47.04h34.92v23.52H26.73v106.91c0,12.83,5.7,22.09,17.46,22.09,7.48,0,14.61-3.21,18.17-7.13l7.84,19.96c-6.77,6.41-16.39,11.05-32.07,11.05-25.3,0-38.13-14.61-38.13-40.27Z"/>
      <path class="cls-7" d="M99.42,91.29h26.73v27.8c13.9-18.17,33.85-31.36,57.37-31.36v27.44c-3.21-.71-6.41-1.07-10.69-1.07-16.39,0-38.84,13.54-46.68,27.44v121.87h-26.73V91.29Z"/>
      <path class="cls-7" d="M379.15,91.29h28.87l57.37,141.12,57.02-141.12h29.22l-71.63,172.12h-29.22l-71.63-172.12Z"/>
      <path class="cls-7" d="M654.25,87.02c52.03,0,82.67,40.62,82.67,92.3v6.77h-139.34c2.14,32.43,24.95,59.51,62.01,59.51,19.6,0,39.56-7.84,53.1-21.74l12.83,17.46c-17.1,17.11-40.27,26.37-68.42,26.37-50.96,0-87.66-36.7-87.66-90.51,0-49.89,35.64-90.16,84.81-90.16ZM597.59,166.48h112.97c-.36-25.66-17.46-57.37-56.66-57.37-36.7,0-54.88,31-56.3,57.37Z"/>
      <path class="cls-7" d="M334.03,237.76c-12.83,17.46-33.85,29.93-58.09,29.93-44.9,0-76.62-34.21-76.62-90.16s31.36-90.51,76.62-90.51c23.16,0,44.19,11.4,58.09,30.29v-26.01h26.73v172.12h-26.73v-25.66ZM334.03,138.69c-9.62-14.97-30.29-27.8-51.67-27.8-34.57,0-55.24,28.51-55.24,66.64s20.67,66.28,55.24,66.28c21.38,0,42.05-12.12,51.67-27.08v-78.04Z"/>
    </g>
  </g>
  <polygon class="cls-6" points="833.2 29.49 752.68 269.69 784.7 269.69 865.22 29.49 833.2 29.49"/>
</svg>